<svg xmlns="http://www.w3.org/2000/svg" xmlns:xlink="http://www.w3.org/1999/xlink" width="176" height="216" viewBox="0 0 176 216">
  <defs>
    <clipPath id="clip-path">
      <rect id="Ret칙ngulo_13" data-name="Ret칙ngulo 13" width="176" height="216" transform="translate(0)" fill="#6677a4" stroke="#707070" stroke-width="1"/>
    </clipPath>
  </defs>
  <g id="Grupo_de_m치scara_5" data-name="Grupo de m치scara 5" transform="translate(0)" clip-path="url(#clip-path)">
    <path id="rocketchat-brands" d="M88.477,69.644A10.569,10.569,0,1,0,99.109,80.213,10.569,10.569,0,0,0,88.477,69.644Zm-34.218,0A10.569,10.569,0,1,0,64.891,80.213,10.569,10.569,0,0,0,54.259,69.644Zm68.443,0a10.569,10.569,0,1,0,10.632,10.568A10.569,10.569,0,0,0,122.7,69.644Zm47.65-17.138A67.768,67.768,0,0,0,150.314,32.8C133.929,22.011,112.4,16.068,89.7,16.068A125.773,125.773,0,0,0,67.38,18.037,73.9,73.9,0,0,0,52.041,6.7,60.619,60.619,0,0,0,3.928,3.538a4.427,4.427,0,0,0-1.721,7.237c6.494,6.715,17.238,19.988,14.6,32.055C6.537,53.334.97,66,.97,79.183c0,13.437,5.567,26.1,15.835,36.6,2.641,12.069-8.1,25.347-14.6,32.062a4.425,4.425,0,0,0,1.721,7.231,60.612,60.612,0,0,0,48.12-3.16,73.943,73.943,0,0,0,15.338-11.335A125.771,125.771,0,0,0,89.7,142.554c22.713,0,44.24-5.936,60.619-16.722a67.689,67.689,0,0,0,20.038-19.709,48.511,48.511,0,0,0-.006-53.615ZM88.769,126.989a107.084,107.084,0,0,1-27.711-3.563l-6.236,6.008a57.118,57.118,0,0,1-11.506,8.546,45.16,45.16,0,0,1-16.272,4.607c.3-.549.583-1.1.88-1.659q9.374-17.25,5.058-31c-10.221-8.043-16.351-18.34-16.351-29.555,0-25.745,32.3-46.616,72.137-46.616s72.143,20.872,72.143,46.616S128.614,126.989,88.769,126.989Z" transform="translate(-1.703 28.69)" fill="#6677a4"/>
  </g>
</svg>
