<svg xmlns="http://www.w3.org/2000/svg" xmlns:xlink="http://www.w3.org/1999/xlink" width="101.509" height="101.509" viewBox="0 0 101.509 101.509">
  <defs>
    <linearGradient id="linear-gradient" x1="0.422" x2="0.419" y2="1.126" gradientUnits="objectBoundingBox">
      <stop offset="0" stop-color="#6767f8"/>
      <stop offset="0.372" stop-color="#f808f0" stop-opacity="0.804"/>
      <stop offset="0.816" stop-color="#fa0" stop-opacity="0.675"/>
      <stop offset="1" stop-color="#e9f11d" stop-opacity="0.98"/>
    </linearGradient>
  </defs>
  <path id="instagram-square-brands" d="M50.755,70.669a12.086,12.086,0,1,0,12.09,12.087,12.086,12.086,0,0,0-12.09-12.087Zm28.257-9.29a12.235,12.235,0,0,0-6.89-6.89c-4.758-1.878-16.087-1.457-21.367-1.457s-16.6-.437-21.369,1.457a12.235,12.235,0,0,0-6.89,6.89c-1.876,4.758-1.457,16.1-1.457,21.374s-.419,16.6,1.466,21.376a12.235,12.235,0,0,0,6.89,6.89c4.758,1.878,16.087,1.457,21.369,1.457s16.595.437,21.367-1.457a12.236,12.236,0,0,0,6.89-6.89c1.892-4.758,1.457-16.1,1.457-21.374s.435-16.6-1.457-21.374ZM50.755,101.334A18.557,18.557,0,1,1,63.9,95.9a18.58,18.58,0,0,1-13.145,5.435ZM70.1,67.732a1.8,1.8,0,1,1,.009.009ZM90.633,32H10.876A10.876,10.876,0,0,0,0,42.876v79.757a10.876,10.876,0,0,0,10.876,10.876H90.633a10.876,10.876,0,0,0,10.876-10.876V42.876A10.876,10.876,0,0,0,90.633,32ZM86.754,97.709c-.292,5.807-1.618,10.953-5.857,15.181s-9.381,5.581-15.181,5.857c-5.984.338-23.925.338-29.909,0-5.807-.292-10.935-1.62-15.181-5.857s-5.581-9.385-5.857-15.181c-.338-5.986-.338-23.929,0-29.909.292-5.807,1.6-10.953,5.857-15.181s9.4-5.565,15.181-5.841c5.984-.338,23.925-.338,29.909,0,5.807.292,10.951,1.62,15.181,5.857s5.581,9.385,5.857,15.192C87.092,73.791,87.092,91.718,86.754,97.709Z" transform="translate(0 -32)" fill="url(#linear-gradient)"/>
</svg>
