<svg xmlns="http://www.w3.org/2000/svg" width="105.755" height="105.755" viewBox="0 0 105.755 105.755">
  <path id="linkedin-brands" d="M98.2,32H7.53A7.587,7.587,0,0,0,0,39.625V130.13a7.587,7.587,0,0,0,7.53,7.625H98.2a7.607,7.607,0,0,0,7.554-7.625V39.625A7.607,7.607,0,0,0,98.2,32ZM31.963,122.647H16.288V72.177h15.7v50.47ZM24.125,65.284A9.088,9.088,0,1,1,33.214,56.2,9.092,9.092,0,0,1,24.125,65.284Zm66.593,57.363H75.043V98.1c0-5.854-.118-13.385-8.144-13.385-8.168,0-9.419,6.374-9.419,12.96v24.975H41.806V72.177H56.843V79.07h.212c2.1-3.966,7.223-8.144,14.848-8.144,15.863,0,18.814,10.457,18.814,24.055Z" transform="translate(0 -32)" fill="#585bcb"/>
</svg>
