<svg xmlns="http://www.w3.org/2000/svg" width="326" height="111" viewBox="0 0 326 111">
  <g id="Logo" transform="translate(-184 -20)">
    <g id="Subtração_1" data-name="Subtração 1" transform="translate(2742 3)" fill="none">
      <path d="M-2499,116h-.009a44.7,44.7,0,0,1-17.508-3.535,44.85,44.85,0,0,1-14.3-9.644,44.849,44.849,0,0,1-9.644-14.3A44.714,44.714,0,0,1-2544,71a44.714,44.714,0,0,1,3.536-17.516,44.849,44.849,0,0,1,9.644-14.3,44.851,44.851,0,0,1,14.3-9.644A44.718,44.718,0,0,1-2499,26Z" stroke="none"/>
      <path d="M -2506.000244140625 108.3597564697266 L -2506.000244140625 33.64006042480469 C -2508.66796875 34.13583374023438 -2511.271240234375 34.91838073730469 -2513.789306640625 35.98345565795898 C -2518.313720703125 37.89714431762695 -2522.37841796875 40.6380729675293 -2525.870361328125 44.13009262084961 C -2529.362548828125 47.62231063842773 -2532.103271484375 51.6868896484375 -2534.016845703125 56.21127319335938 C -2535.99658203125 60.89098358154297 -2537.000244140625 65.86667633056641 -2537.000244140625 71.00009155273438 C -2537.000244140625 76.133544921875 -2535.99658203125 81.10922241210938 -2534.016845703125 85.78927612304688 C -2532.103271484375 90.31330871582031 -2529.362548828125 94.37789154052734 -2525.870361328125 97.87014770507812 C -2522.37841796875 101.3621826171875 -2518.313720703125 104.1030883789062 -2513.78955078125 106.0167083740234 C -2511.27197265625 107.0815200805664 -2508.66845703125 107.8639602661133 -2506.000244140625 108.3597564697266 M -2499.000244140625 116.0000915527344 L -2499.002197265625 115.9991073608398 C -2499.004150390625 115.9991073608398 -2499.0068359375 115.9991073608398 -2499.0087890625 115.9991073608398 C -2505.080322265625 115.9992218017578 -2510.970458984375 114.809440612793 -2516.516357421875 112.4637451171875 C -2521.875 110.1971817016602 -2526.6875 106.9524917602539 -2530.820068359375 102.8198394775391 C -2534.952880859375 98.68698120117188 -2538.197509765625 93.87448883056641 -2540.4638671875 88.51605224609375 C -2542.810546875 82.96849060058594 -2544.000244140625 77.07525634765625 -2544.000244140625 71.00009155273438 C -2544.000244140625 64.9249267578125 -2542.810546875 59.0317268371582 -2540.4638671875 53.48414611816406 C -2538.197509765625 48.12570953369141 -2534.952880859375 43.31321716308594 -2530.820068359375 39.18036270141602 C -2526.6875 35.0477294921875 -2521.875 31.80305480957031 -2516.516357421875 29.53645515441895 C -2510.968505859375 27.18989181518555 -2505.0751953125 26.00009155273438 -2499.000244140625 26.00009155273438 L -2499.000244140625 116.0000915527344 Z" stroke="none" fill="#6677a4"/>
    </g>
    <g id="Elipse_16" data-name="Elipse 16" transform="translate(184 55)" fill="#fff" stroke="#6677a4" stroke-width="3">
      <circle cx="17.5" cy="17.5" r="17.5" stroke="none"/>
      <circle cx="17.5" cy="17.5" r="16" fill="none"/>
    </g>
    <g id="Elipse_18" data-name="Elipse 18" transform="translate(225 20)" fill="#fff" stroke="#6677a4" stroke-width="3">
      <circle cx="17.5" cy="17.5" r="17.5" stroke="none"/>
      <circle cx="17.5" cy="17.5" r="16" fill="none"/>
    </g>
    <g id="Elipse_19" data-name="Elipse 19" transform="translate(225 96)" fill="#fff" stroke="#6677a4" stroke-width="3">
      <circle cx="17.5" cy="17.5" r="17.5" stroke="none"/>
      <circle cx="17.5" cy="17.5" r="16" fill="none"/>
    </g>
    <text id="onnect" transform="translate(257 101)" fill="#6677a4" font-size="84" font-family="ArialMT, Arial"><tspan x="0" y="0">onnect</tspan></text>
  </g>
</svg>
