<svg xmlns="http://www.w3.org/2000/svg" width="107.509" height="107.509" viewBox="0 0 107.509 107.509">
  <path id="twitter-square-brands" d="M95.99,32H11.519A11.522,11.522,0,0,0,0,43.519V127.99a11.522,11.522,0,0,0,11.519,11.519H95.99a11.522,11.522,0,0,0,11.519-11.519V43.519A11.522,11.522,0,0,0,95.99,32ZM84.256,70.108c.048.672.048,1.368.048,2.04,0,20.806-15.838,44.78-44.78,44.78a44.573,44.573,0,0,1-24.166-7.055,33.156,33.156,0,0,0,3.792.192,31.555,31.555,0,0,0,19.534-6.719A15.76,15.76,0,0,1,23.974,92.426a16.963,16.963,0,0,0,7.1-.288,15.74,15.74,0,0,1-12.6-15.454v-.192a15.728,15.728,0,0,0,7.1,1.992,15.706,15.706,0,0,1-7.007-13.1,15.542,15.542,0,0,1,2.136-7.943A44.689,44.689,0,0,0,53.155,73.9,15.772,15.772,0,0,1,80.008,59.525a30.841,30.841,0,0,0,9.983-3.792A15.7,15.7,0,0,1,83.08,64.4a31.321,31.321,0,0,0,9.071-2.448A33.128,33.128,0,0,1,84.256,70.108Z" transform="translate(0 -32)" fill="#3e92ff"/>
</svg>
